<?xml version="1.0" encoding="UTF-8"?>
<svg width="178px" height="40px" viewBox="0 0 178 40" version="1.1" xmlns="http://www.w3.org/2000/svg" xmlns:xlink="http://www.w3.org/1999/xlink">
    <!-- Generator: Sketch 55 (78076) - https://sketchapp.com -->
    <title>M_logo@1x</title>
    <desc>Created with Sketch.</desc>
    <defs>
        <polygon id="path-1" points="0 27.215319 154 27.215319 154 0.215318996 0 0.215318996"></polygon>
    </defs>
    <g id="M_logo" stroke="none" stroke-width="1" fill="none" fill-rule="evenodd">
        <g id="Group-49" transform="translate(11.666667, 6.111111)">
            <mask id="mask-2" fill="white">
                <use xlink:href="#path-1"></use>
            </mask>
            <g id="-"></g>
            <path d="M19.5680087,16.8102007 L17.1064826,16.8102007 L17.1064826,10.2828172 C17.1064826,9.19801434 16.9279953,8.40364158 16.5696888,7.89837276 C16.2113822,7.39310394 15.6892403,7.14113262 15.0032631,7.14113262 C14.3026339,7.14113262 13.6632764,7.39708244 13.0905187,7.91030824 C12.5150971,8.42220789 12.1021787,9.08661649 11.8477677,9.90353405 L11.8477677,16.8102007 L9.38624163,16.8102007 L9.38624163,10.2828172 C9.38624163,9.18342652 9.20775435,8.38507527 8.84944779,7.88643728 C8.49247323,7.38912545 7.9769913,7.14113262 7.305666,7.14113262 C6.60503681,7.14113262 5.96301539,7.39310394 5.38093373,7.89837276 C4.79885207,8.40364158 4.38193775,9.06407168 4.12752677,9.88098925 L4.12752677,16.8102007 L1.66733266,16.8102007 L1.66733266,5.15718996 L3.90375167,5.15718996 L3.90375167,7.49787097 C4.36595382,6.68095341 4.97467537,6.05367742 5.72725234,5.61471685 C6.48116131,5.17708244 7.34162985,4.95693907 8.31265395,4.95693907 C9.28101406,4.95693907 10.046911,5.21023656 10.6050167,5.71550538 C11.1644545,6.22077419 11.5121051,6.85070251 11.6466365,7.60926882 C12.1394746,6.74726165 12.7588521,6.09081004 13.5034371,5.63726165 C14.2506861,5.18371326 15.1004987,4.95693907 16.0542068,4.95693907 C16.7415161,4.95693907 17.3116098,5.08822939 17.7658199,5.34683154 C18.2213621,5.60675986 18.5836647,5.95288889 18.8527276,6.38389247 C19.1204585,6.81356989 19.3069378,7.31486022 19.4121653,7.88643728 C19.5160609,8.4593405 19.5680087,9.06407168 19.5680087,9.70328315 L19.5680087,16.8102007 Z" id="Fill-1" fill="#231916" mask="url(#mask-2)"></path>
            <path d="M26.4152604,15.2282186 C27.011994,15.2282186 27.5754277,15.1207993 28.1055616,14.9046344 C28.6343635,14.6897957 29.0486138,14.3900824 29.3469806,14.0028423 C29.6599993,13.7362832 29.8171747,13.45381 29.8171747,13.1567491 L29.8171747,11.6183978 C29.3989284,11.4552796 28.9553742,11.3292939 28.4851801,11.2404409 C28.0149859,11.1515878 27.5554478,11.1064982 27.1092296,11.1064982 C26.2274491,11.1064982 25.508172,11.2961398 24.9487343,11.6740968 C24.3892965,12.0533799 24.1109096,12.5546703 24.1109096,13.1792939 C24.1109096,13.7575018 24.3266928,14.2442043 24.759591,14.6380753 C25.1911573,15.0319462 25.7439351,15.2282186 26.4152604,15.2282186 M25.7439351,17.033129 C25.1765054,17.033129 24.6516995,16.9402975 24.1668534,16.7546344 C23.6806754,16.5689713 23.263761,16.3130215 22.9134465,15.9854588 C22.5617999,15.6592222 22.286077,15.2733082 22.0849458,14.8277168 C21.8838146,14.3821254 21.782583,13.8994014 21.782583,13.3782186 C21.782583,12.8291864 21.9024625,12.3318746 22.1408896,11.8862832 C22.3806486,11.4406918 22.7203072,11.0547778 23.1598655,10.7272151 C23.5994237,10.4009785 24.1215656,10.147681 24.7249592,9.96997491 C25.3310167,9.79226882 25.9983461,9.70208961 26.7282791,9.70208961 C27.2797249,9.70208961 27.8258427,9.75115771 28.3626365,9.84796774 C28.8994304,9.94477778 29.3842764,10.0747419 29.8171747,10.2378602 L29.8171747,9.43553047 C29.8171747,8.5735233 29.5707557,7.90248387 29.0779177,7.41975986 C28.5864116,6.93703584 27.8777905,6.69434767 26.9520542,6.69434767 C26.3260167,6.69434767 25.7106352,6.80972401 25.1072416,7.0404767 C24.5011841,7.27122939 23.8791426,7.60144444 23.2371212,8.03244803 L22.4765522,6.47155197 C23.9830382,5.4623405 25.5507959,4.95707168 27.1758293,4.95707168 C28.7875428,4.95707168 30.0409498,5.36553047 30.9360502,6.18244803 C31.8298186,6.99936559 32.2773688,8.17302151 32.2773688,9.70208961 L32.2773688,13.9139892 C32.2773688,14.4338459 32.4931519,14.7017312 32.9273822,14.716319 L32.9273822,16.8103333 C32.6889552,16.8554229 32.483828,16.8845986 32.3120007,16.8991864 C32.1401734,16.9137742 31.972342,16.9217312 31.8085067,16.9217312 C31.3303206,16.9217312 30.9613581,16.8023763 30.7002871,16.5649928 C30.4392162,16.3276093 30.2780448,16.0225914 30.2194371,15.6512652 L30.1528373,14.9165699 C29.6293635,15.5995448 28.984678,16.1233799 28.2174491,16.4867491 C27.4475562,16.8514444 26.6230515,17.033129 25.7439351,17.033129" id="Fill-3" fill="#231916" mask="url(#mask-2)"></path>
            <path d="M41.9894746,16.2086523 C41.6764558,16.3571828 41.2435576,16.5242796 40.6921118,16.7099427 C40.139334,16.8956057 39.5505924,16.9884373 38.9232229,16.9884373 C38.5356124,16.9884373 38.1706459,16.9367168 37.8269913,16.8319498 C37.4846687,16.728509 37.1823059,16.5720215 36.9212349,16.3651398 C36.660164,16.1569319 36.4550368,15.8850681 36.3058534,15.5508746 C36.15667,15.216681 36.0820783,14.8122007 36.0820783,14.3374337 L36.0820783,7.05148387 L34.5382965,7.05148387 L34.5382965,5.15772043 L36.0820783,5.15772043 L36.0820783,1.32643011 L38.5436044,1.32643011 L38.5436044,5.15772043 L41.0943742,5.15772043 L41.0943742,7.05148387 L38.5436044,7.05148387 L38.5436044,13.5576487 C38.5742403,13.9727384 38.7034438,14.2751039 38.9352108,14.4594409 C39.1669779,14.6451039 39.4533568,14.7379355 39.7970114,14.7379355 C40.139334,14.7379355 40.4670047,14.6795842 40.7813554,14.5602294 C41.0943742,14.4408746 41.3261412,14.3453907 41.4753246,14.2711254 L41.9894746,16.2086523 Z" id="Fill-5" fill="#000000" mask="url(#mask-2)"></path>
            <path d="M47.5164531,17.0329964 C46.2936821,17.0329964 45.3692778,16.6364731 44.7419083,15.8407742 C44.1145388,15.0464014 43.8028521,13.8621362 43.8028521,12.2879785 L43.8028521,5.15718996 L46.2643782,5.15718996 L46.2643782,11.7972975 C46.2643782,13.8913118 47.0089632,14.9389821 48.5007972,14.9389821 C49.2027584,14.9389821 49.8674237,14.7241434 50.4921292,14.2931398 C51.1194987,13.8621362 51.6043447,13.2388387 51.9479993,12.420595 L51.9479993,5.15718996 L54.4095254,5.15718996 L54.4095254,13.9138566 C54.4095254,14.1963297 54.4574772,14.3965806 54.5547129,14.5159355 C54.6506165,14.6339642 54.8264398,14.7015986 55.0808507,14.7161864 L55.0808507,16.8102007 C54.8264398,16.8552903 54.6173166,16.8844659 54.4534813,16.8990538 C54.2896459,16.9136416 54.1338025,16.9215986 53.9832871,16.9215986 C53.5370689,16.9215986 53.1561185,16.7995914 52.8430997,16.5542509 C52.530081,16.3089104 52.3662456,15.9932832 52.3502617,15.6073692 L52.3063059,14.4483011 C51.782832,15.2943943 51.1048467,15.9375842 50.2683541,16.3752186 C49.4331934,16.812853 48.5167811,17.0329964 47.5164531,17.0329964" id="Fill-8" fill="#000000" mask="url(#mask-2)"></path>
            <path d="M75.6677604,16.8102007 L73.2062343,16.8102007 L73.2062343,10.2828172 C73.2062343,9.19801434 73.027747,8.40364158 72.6694404,7.89837276 C72.3098019,7.39310394 71.788992,7.14113262 71.1030147,7.14113262 C70.4010535,7.14113262 69.7630281,7.39708244 69.1902704,7.91030824 C68.6148487,8.42220789 68.2019304,9.08661649 67.9475194,9.90353405 L67.9475194,16.8102007 L65.4859933,16.8102007 L65.4859933,10.2828172 C65.4859933,9.18342652 65.307506,8.38507527 64.9491995,7.88643728 C64.5908929,7.38912545 64.076743,7.14113262 63.4054177,7.14113262 C62.7034565,7.14113262 62.0614351,7.39310394 61.4806854,7.89837276 C60.8986037,8.40364158 60.4803574,9.06407168 60.2272784,9.88098925 L60.2272784,16.8102007 L57.7657523,16.8102007 L57.7657523,5.15718996 L60.0021714,5.15718996 L60.0021714,7.49787097 C60.4657055,6.68095341 61.073095,6.05367742 61.827004,5.61471685 C62.580913,5.17708244 63.4413815,4.95693907 64.4124056,4.95693907 C65.3807657,4.95693907 66.1466627,5.21023656 66.7047684,5.71550538 C67.2642062,6.22077419 67.6118568,6.85070251 67.7463882,7.60926882 C68.2392262,6.74726165 68.8572718,6.09081004 69.6031888,5.63726165 C70.3491058,5.18371326 71.2002503,4.95693907 72.1539585,4.95693907 C72.8399357,4.95693907 73.4113614,5.08822939 73.8655716,5.34683154 C74.3211138,5.60675986 74.6834163,5.95288889 74.9511473,6.38389247 C75.2202102,6.81356989 75.4066894,7.31486022 75.511917,7.88643728 C75.6158126,8.4593405 75.6677604,9.06407168 75.6677604,9.70328315 L75.6677604,16.8102007 Z" id="Fill-10" fill="#000000" mask="url(#mask-2)"></path>
            <path d="M80.5002369,11.0173799 C80.5002369,11.5823262 80.5894806,12.1021828 80.7692999,12.5769498 C80.9491191,13.053043 81.1942062,13.4654803 81.5085569,13.8129355 C81.8202436,14.163043 82.1905382,14.4375591 82.6154444,14.63781 C83.0403507,14.8380609 83.4998889,14.9388495 83.9913949,14.9388495 C84.4842329,14.9388495 84.9424391,14.8380609 85.3673454,14.63781 C85.7935837,14.4375591 86.1625462,14.1590645 86.4755649,13.8023262 C86.7899157,13.446914 87.0350027,13.0304982 87.21349,12.554405 C87.3933092,12.079638 87.4825529,11.5597814 87.4825529,10.9948351 C87.4825529,10.4458029 87.3933092,9.92992473 87.21349,9.44720072 C87.0350027,8.9644767 86.7899157,8.54408244 86.4755649,8.18867025 C86.1625462,7.8319319 85.7935837,7.55343728 85.3673454,7.35186022 C84.9424391,7.15160932 84.4842329,7.05214695 83.9913949,7.05214695 C83.5145408,7.05214695 83.0629946,7.15558781 82.6367564,7.3637957 C82.2131821,7.57200358 81.8442195,7.8544767 81.5298688,8.20988889 C81.2168501,8.56662724 80.9677671,8.98702151 80.7812878,9.46974552 C80.5934766,9.95246953 80.5002369,10.4683477 80.5002369,11.0173799 M83.9913949,17.0328638 C83.0669906,17.0328638 82.235826,16.8697455 81.4965689,16.543509 C80.7573119,16.2159462 80.1286104,15.7783118 79.6051365,15.2279534 C79.0843266,14.6789211 78.6807323,14.0357312 78.3970174,13.3010358 C78.1133025,12.5663405 77.9734431,11.7971649 77.9734431,10.9948351 C77.9734431,10.1925054 78.1133025,9.42465591 78.3970174,8.68996057 C78.6807323,7.95393907 79.0869906,7.31207527 79.6171245,6.76304301 C80.1459264,6.21268459 80.7812878,5.77505018 81.5192129,5.44748746 C82.2571379,5.1212509 83.0803106,4.95813262 83.9913949,4.95813262 C84.9024793,4.95813262 85.7256519,5.1212509 86.464909,5.44748746 C87.202834,5.77505018 87.8368635,6.21268459 88.3656653,6.76304301 C88.8957992,7.31207527 89.3020576,7.95393907 89.5857724,8.68996057 C89.8694873,9.42465591 90.0120107,10.1925054 90.0120107,10.9948351 C90.0120107,11.7971649 89.8694873,12.5663405 89.5857724,13.3010358 C89.3020576,14.0357312 88.8957992,14.6789211 88.3656653,15.2279534 C87.8368635,15.7783118 87.202834,16.2159462 86.464909,16.543509 C85.7256519,16.8697455 84.9024793,17.0328638 83.9913949,17.0328638" id="Fill-12" fill="#000000" mask="url(#mask-2)"></path>
            <path d="M98.9399712,16.2086523 C98.6269525,16.3571828 98.1927222,16.5242796 97.6412764,16.7099427 C97.0884987,16.8956057 96.499757,16.9884373 95.8737195,16.9884373 C95.4847771,16.9884373 95.1198106,16.9367168 94.777488,16.8319498 C94.4338333,16.728509 94.1328025,16.5720215 93.8703996,16.3651398 C93.6093286,16.1569319 93.4042015,15.8850681 93.2550181,15.5508746 C93.1058347,15.216681 93.031243,14.8122007 93.031243,14.3374337 L93.031243,7.05148387 L91.4874612,7.05148387 L91.4874612,5.15772043 L93.031243,5.15772043 L93.031243,1.32643011 L95.4927691,1.32643011 L95.4927691,5.15772043 L98.0435388,5.15772043 L98.0435388,7.05148387 L95.4927691,7.05148387 L95.4927691,13.5576487 C95.523405,13.9727384 95.6526084,14.2751039 95.8843755,14.4594409 C96.1161426,14.6451039 96.4038534,14.7379355 96.747508,14.7379355 C97.0884987,14.7379355 97.4175013,14.6795842 97.7318521,14.5602294 C98.0435388,14.4408746 98.2753059,14.3453907 98.4244893,14.2711254 L98.9399712,16.2086523 Z" id="Fill-14" fill="#000000" mask="url(#mask-2)"></path>
            <path d="M102.630262,11.0173799 C102.630262,11.5823262 102.719506,12.1021828 102.899325,12.5769498 C103.079145,13.053043 103.324232,13.4654803 103.638582,13.8129355 C103.950269,14.163043 104.320564,14.4375591 104.74547,14.63781 C105.170376,14.8380609 105.629914,14.9388495 106.12142,14.9388495 C106.614258,14.9388495 107.072465,14.8380609 107.497371,14.63781 C107.923609,14.4375591 108.292572,14.1590645 108.60559,13.8023262 C108.919941,13.446914 109.165028,13.0304982 109.343515,12.554405 C109.523335,12.079638 109.612578,11.5597814 109.612578,10.9948351 C109.612578,10.4458029 109.523335,9.92992473 109.343515,9.44720072 C109.165028,8.9644767 108.919941,8.54408244 108.60559,8.18867025 C108.292572,7.8319319 107.923609,7.55343728 107.497371,7.35186022 C107.072465,7.15160932 106.614258,7.05214695 106.12142,7.05214695 C105.644566,7.05214695 105.19302,7.15558781 104.766782,7.3637957 C104.343207,7.57200358 103.974245,7.8544767 103.659894,8.20988889 C103.346876,8.56662724 103.097793,8.98702151 102.911313,9.46974552 C102.723502,9.95246953 102.630262,10.4683477 102.630262,11.0173799 M106.12142,17.0328638 C105.197016,17.0328638 104.365851,16.8697455 103.626594,16.543509 C102.887337,16.2159462 102.258636,15.7783118 101.735162,15.2279534 C101.214352,14.6789211 100.810758,14.0357312 100.527043,13.3010358 C100.243328,12.5663405 100.103469,11.7971649 100.103469,10.9948351 C100.103469,10.1925054 100.243328,9.42465591 100.527043,8.68996057 C100.810758,7.95393907 101.217016,7.31207527 101.74715,6.76304301 C102.275952,6.21268459 102.911313,5.77505018 103.649238,5.44748746 C104.387163,5.1212509 105.210336,4.95813262 106.12142,4.95813262 C107.032505,4.95813262 107.855677,5.1212509 108.594934,5.44748746 C109.332859,5.77505018 109.966889,6.21268459 110.495691,6.76304301 C111.025825,7.31207527 111.432083,7.95393907 111.715798,8.68996057 C111.999513,9.42465591 112.142036,10.1925054 112.142036,10.9948351 C112.142036,11.7971649 111.999513,12.5663405 111.715798,13.3010358 C111.432083,14.0357312 111.025825,14.6789211 110.495691,15.2279534 C109.966889,15.7783118 109.332859,16.2159462 108.594934,16.543509 C107.855677,16.8697455 107.032505,17.0328638 106.12142,17.0328638" id="Fill-17" fill="#000000" mask="url(#mask-2)"></path>
            <path d="M95.3875415,24.2860573 C89.8917316,24.2860573 86.054255,21.8392832 86.054255,18.3355556 L88.292006,18.3355556 C88.292006,20.4932258 91.275674,22.0581004 95.3875415,22.0581004 C99.499409,22.0581004 102.484409,20.4932258 102.484409,18.3355556 L104.72216,18.3355556 C104.72216,21.8392832 100.883351,24.2860573 95.3875415,24.2860573" id="Fill-28" fill="#231916" mask="url(#mask-2)"></path>
            <path d="M115.79591,19.7583405 C116.019685,19.8021039 116.239465,19.8405627 116.455248,19.8697384 C116.671031,19.898914 116.846854,19.9135018 116.982718,19.9135018 C117.175857,19.9135018 117.343688,19.8737168 117.486212,19.7914946 C117.627403,19.7105986 117.771258,19.5647204 117.921774,19.3565125 C118.070957,19.1496308 118.222805,18.8552222 118.37998,18.4772652 C118.537155,18.0979821 118.719639,17.6126057 118.928762,17.0184839 L114.117597,5.36547312 L116.647055,5.36547312 L120.27008,14.8581613 L123.493507,5.36547312 L125.820502,5.36547312 L120.517831,19.7145771 C120.278072,20.3829642 119.865154,20.9426057 119.27508,21.394828 C118.686339,21.8483763 117.929766,22.0751505 117.004029,22.0751505 C116.82421,22.0751505 116.639063,22.0645412 116.444592,22.0419964 C116.251452,22.0194516 116.034337,21.9717097 115.79591,21.8974444 L115.79591,19.7583405 Z" id="Fill-41" fill="#000000" mask="url(#mask-2)"></path>
            <path d="M131.459901,17.2407491 C130.235798,17.2407491 129.311394,16.8428996 128.685356,16.049853 C128.057987,15.2554803 127.744968,14.0698889 127.744968,12.4957312 L127.744968,5.36626882 L130.206494,5.36626882 L130.206494,12.0063763 C130.206494,14.1003907 130.952411,15.1467348 132.444245,15.1467348 C133.146206,15.1467348 133.809539,14.9318961 134.435577,14.5008925 C135.062946,14.0698889 135.546461,13.4465914 135.890115,12.6283477 L135.890115,5.36626882 L138.351641,5.36626882 L138.351641,14.1216093 C138.351641,14.4040824 138.400925,14.6056595 138.496829,14.7236882 C138.594064,14.8417168 138.768556,14.9093513 139.024299,14.9239391 L139.024299,17.0179534 C138.768556,17.0617168 138.560764,17.0922186 138.396929,17.1068065 C138.233094,17.1213943 138.075918,17.1293513 137.926735,17.1293513 C137.480517,17.1293513 137.098234,17.0060179 136.785216,16.7620036 C136.472197,16.5166631 136.308361,16.2010358 136.29371,15.8151219 L136.248422,14.6573799 C135.72628,15.502147 135.046963,16.1453369 134.211802,16.5842975 C133.375309,17.0219319 132.458897,17.2407491 131.459901,17.2407491" id="Fill-42" fill="#000000" mask="url(#mask-2)"></path>
            <path d="M148.288055,7.48296057 C147.333015,7.5121362 146.485866,7.73095341 145.749273,8.14073835 C145.010016,8.54919713 144.48521,9.13138351 144.170859,9.88862366 L144.170859,17.018086 L141.709333,17.018086 L141.709333,5.36640143 L143.99104,5.36640143 L143.99104,7.97364158 C144.394635,7.17131183 144.920772,6.52812186 145.569454,6.04672401 C146.218135,5.564 146.9161,5.30009319 147.660685,5.25500358 L148.03098,5.25500358 C148.128216,5.25500358 148.213463,5.26296057 148.288055,5.27754839 L148.288055,7.48296057 Z" id="Fill-43" fill="#000000" mask="url(#mask-2)"></path>
            <path d="M150.74745,17.0172903 L153.210308,17.0172903 L153.210308,5.36560573 L150.74745,5.36560573 L150.74745,17.0172903 Z M150.74745,3.45062366 L153.210308,3.45062366 L153.210308,0.754530466 L150.74745,0.754530466 L150.74745,3.45062366 Z" id="Fill-44" fill="#000000" mask="url(#mask-2)"></path>
            <path d="M86.5449618,10.9843584 C86.5449618,12.3927455 85.3981145,13.5332473 83.9835361,13.5332473 C82.5702898,13.5332473 81.4234424,12.3927455 81.4234424,10.9843584 C81.4234424,9.57597133 82.5702898,8.43546953 83.9835361,8.43546953 C85.3981145,8.43546953 86.5449618,9.57597133 86.5449618,10.9843584" id="Fill-47" fill="#231916" mask="url(#mask-2)"></path>
            <path d="M108.7621,10.9843584 C108.7621,12.3927455 107.616584,13.5332473 106.202006,13.5332473 C104.78876,13.5332473 103.64058,12.3927455 103.64058,10.9843584 C103.64058,9.57597133 104.78876,8.43546953 106.202006,8.43546953 C107.616584,8.43546953 108.7621,9.57597133 108.7621,10.9843584" id="Fill-48" fill="#000000" mask="url(#mask-2)"></path>
        </g>
    </g>
</svg>
