<?xml version="1.0" encoding="UTF-8"?>
<svg width="160px" height="28px" viewBox="0 0 160 28" version="1.1" xmlns="http://www.w3.org/2000/svg" xmlns:xlink="http://www.w3.org/1999/xlink">
    <!-- Generator: Sketch 54.1 (76490) - https://sketchapp.com -->
    <title>M_logo</title>
    <desc>Created with Sketch.</desc>
    <g id="Page-1" stroke="none" stroke-width="1" fill="none" fill-rule="evenodd">
        <g id="M_#HEADER" transform="translate(-41.000000, -22.000000)" fill="#000000" fill-rule="nonzero">
            <g id="M_logo" transform="translate(41.000000, 22.000000)">
                <g id="Group-49">
                    <g id="Group" transform="translate(0.926046, 0.522388)">
                        <path d="M18.6971189,18.3410623 L16.1261694,18.3410623 L16.1261694,10.9758355 C16.1261694,9.75178931 15.9397477,8.85545229 15.5655132,8.28532807 C15.1912787,7.71520385 14.6459257,7.43088994 13.9294544,7.43088994 C13.1976798,7.43088994 12.5299008,7.71969302 11.931682,8.29879557 C11.3306808,8.87640173 10.8994068,9.62609263 10.6336864,10.5478683 L10.6336864,18.3410623 L8.06273689,18.3410623 L8.06273689,10.9758355 C8.06273689,9.73532903 7.87631523,8.83450284 7.5020807,8.27186057 C7.12923738,7.71071468 6.59084049,7.43088994 5.88967244,7.43088994 C5.15789786,7.43088994 4.48733636,7.71520385 3.87937914,8.28532807 C3.27142193,8.85545229 2.83597432,9.60065402 2.57025389,10.5224297 L2.57025389,18.3410623 L0.000695603217,18.3410623 L0.000695603217,5.19229196 L2.33653121,5.19229196 L2.33653121,7.83341858 C2.81927984,6.91164295 3.45506118,6.20385094 4.24109282,5.70854617 C5.02851566,5.21473779 5.92723502,4.96633722 6.94142451,4.96633722 C7.95283158,4.96633722 8.75277528,5.25214752 9.33569078,5.82227174 C9.91999748,6.39239596 10.2831024,7.10318074 10.4236142,7.95911526 C10.9383606,6.9864624 11.5852716,6.24574983 12.362956,5.73398479 C13.1434228,5.22221974 14.0310125,4.96633722 15.0271163,4.96633722 C15.7449788,4.96633722 16.3404152,5.11447973 16.8148166,5.40627559 C17.2906092,5.69956784 17.6690173,6.09012537 17.950041,6.57645181 C18.2296735,7.06128185 18.4244424,7.6269169 18.5343477,8.27186057 C18.6428618,8.91830063 18.6971189,9.60065402 18.6971189,10.3219135 L18.6971189,18.3410623 Z" id="Fill-1"></path>
                        <path d="M25.8487547,16.5560198 C26.4720152,16.5560198 27.0604955,16.4348123 27.6141956,16.1909009 C28.1665046,15.9484859 28.5991698,15.610302 28.9108,15.1733564 C29.2377336,14.8725822 29.4018959,14.5538513 29.4018959,14.2186602 L29.4018959,12.4828489 C28.9650571,12.2987931 28.5017854,12.1566361 28.0106895,12.056378 C27.5195936,11.95612 27.0396274,11.9052428 26.5735732,11.9052428 C25.6525946,11.9052428 24.9013431,12.1192264 24.3170364,12.5456973 C23.7327297,12.9736645 23.4419675,13.5392996 23.4419675,14.2440988 C23.4419675,14.8965244 23.667343,15.4456992 24.1194851,15.8901267 C24.570236,16.3345543 25.1475866,16.5560198 25.8487547,16.5560198 M25.1475866,18.5926053 C24.5549327,18.5926053 24.0067974,18.4878581 23.5003982,18.2783636 C22.9926079,18.0688691 22.5571603,17.7800661 22.191273,17.410458 C21.8239945,17.0423463 21.5360147,16.6068971 21.3259426,16.1041104 C21.1158704,15.6013236 21.0101387,15.056638 21.0101387,14.4685571 C21.0101387,13.8490521 21.1353473,13.2879062 21.3843732,12.7851195 C21.6347904,12.2823328 21.989548,11.8468836 22.4486462,11.4772755 C22.9077443,11.1091638 23.4530972,10.8233535 24.0833137,10.6228374 C24.7163126,10.4223212 25.4133071,10.3205668 26.1756882,10.3205668 C26.7516477,10.3205668 27.3220423,10.3759332 27.8826985,10.4851696 C28.4433547,10.594406 28.9497538,10.7410521 29.4018959,10.9251079 L29.4018959,10.0197926 C29.4018959,9.04713972 29.1445227,8.28996688 28.6297763,7.74528127 C28.1164212,7.20059567 27.3762993,6.92675648 26.4094109,6.92675648 C25.7555438,6.92675648 25.1128065,7.05694232 24.48259,7.31731401 C23.849591,7.5776857 23.1998976,7.95028657 22.5293361,8.436613 L21.7349573,6.67536312 C23.3084117,5.53661107 24.9458617,4.96648686 26.6431336,4.96648686 C28.3264933,4.96648686 29.6356186,5.42737468 30.5705093,6.34915031 C31.5040088,7.27092595 31.9714542,8.59523024 31.9714542,10.3205668 L31.9714542,15.0730983 C31.9714542,15.6596828 32.1968296,15.9619534 32.6503629,15.9784137 L32.6503629,18.3412119 C32.401337,18.3920892 32.1870912,18.4250097 32.0076256,18.44147 C31.8281599,18.4579303 31.6528679,18.4669086 31.4817495,18.4669086 C30.9823064,18.4669086 30.5969422,18.3322336 30.3242658,18.06438 C30.0515893,17.7965263 29.8832533,17.4523569 29.8220403,17.0333679 L29.7524799,16.2043684 C29.2057358,16.9750088 28.5323919,17.5660824 27.731057,17.976093 C26.9269397,18.3876 26.0657829,18.5926053 25.1475866,18.5926053" id="Fill-3"></path>
                        <path d="M42.1152968,17.6623002 C41.7883633,17.8298958 41.3362212,18.0184408 40.7602617,18.2279353 C40.1829111,18.4374298 39.5679978,18.542177 38.9127396,18.542177 C38.5078985,18.542177 38.126708,18.4838178 37.7677767,18.3656031 C37.4102366,18.2488847 37.0944328,18.0723108 36.8217563,17.8388741 C36.5490799,17.6039411 36.3348341,17.2971813 36.1790189,16.9200913 C36.0232038,16.5430013 35.9452963,16.0866026 35.9452963,15.5508953 L35.9452963,7.32973404 L34.332888,7.32973404 L34.332888,5.19289052 L35.9452963,5.19289052 L35.9452963,0.869822629 L38.5162458,0.869822629 L38.5162458,5.19289052 L41.1804061,5.19289052 L41.1804061,7.32973404 L38.5162458,7.32973404 L38.5162458,14.6710186 C38.5482435,15.1393883 38.6831905,15.480565 38.9252604,15.6885631 C39.1673304,15.8980576 39.4664397,16.0028048 39.825371,16.0028048 C40.1829111,16.0028048 40.5251478,15.9369637 40.8534726,15.8022887 C41.1804061,15.6676137 41.422476,15.5598737 41.5782911,15.4760759 L42.1152968,17.6623002 Z" id="Fill-5"></path>
                        <path d="M47.8879688,18.5924557 C46.6108413,18.5924557 45.645344,18.1450353 44.9900858,17.2472019 C44.3348275,16.3508649 44.0092852,15.0145895 44.0092852,13.2383757 L44.0092852,5.19229196 L46.5802347,5.19229196 L46.5802347,12.6847118 C46.5802347,15.0475101 47.3579191,16.2296574 48.9160703,16.2296574 C49.6492361,16.2296574 50.3434481,15.9872424 50.995924,15.5009159 C51.6511822,15.0145895 52.1575813,14.3112867 52.5165126,13.3880146 L52.5165126,5.19229196 L55.0874621,5.19229196 L55.0874621,15.0729487 C55.0874621,15.3916795 55.1375455,15.6176343 55.2391036,15.7523093 C55.3392704,15.8854879 55.5229097,15.9618038 55.7886301,15.978264 L55.7886301,18.3410623 C55.5229097,18.3919395 55.3044903,18.4248601 55.1333719,18.4413204 C54.9622535,18.4577806 54.7994823,18.466759 54.642276,18.466759 C54.1762219,18.466759 53.7783368,18.3290912 53.4514033,18.0522592 C53.1244698,17.7754273 52.9533514,17.4192867 52.9366569,16.9838375 L52.8907471,15.6759935 C52.344003,16.6306896 51.6358789,17.3564383 50.7622013,17.8502467 C49.8899148,18.3440551 48.9327648,18.5924557 47.8879688,18.5924557" id="Fill-8"></path>
                        <path d="M77.2906994,18.3410623 L74.7197499,18.3410623 L74.7197499,10.9758355 C74.7197499,9.75178931 74.5333283,8.85545229 74.1590937,8.28532807 C73.783468,7.71520385 73.2395063,7.43088994 72.523035,7.43088994 C71.7898692,7.43088994 71.1234813,7.71969302 70.5252625,8.29879557 C69.9242613,8.87640173 69.4929874,9.62609263 69.2272669,10.5478683 L69.2272669,18.3410623 L66.6563174,18.3410623 L66.6563174,10.9758355 C66.6563174,9.73532903 66.4698958,8.83450284 66.0956612,8.27186057 C65.7214267,7.71071468 65.184421,7.43088994 64.483253,7.43088994 C63.7500872,7.43088994 63.0795257,7.71520385 62.4729597,8.28532807 C61.8650025,8.85545229 61.4281636,9.60065402 61.1638344,10.5224297 L61.1638344,18.3410623 L58.5928849,18.3410623 L58.5928849,5.19229196 L60.9287205,5.19229196 L60.9287205,7.83341858 C61.4128604,6.91164295 62.0472505,6.20385094 62.8346734,5.70854617 C63.6220962,5.21473779 64.5208156,4.96633722 65.535005,4.96633722 C66.5464121,4.96633722 67.3463558,5.25214752 67.9292713,5.82227174 C68.513578,6.39239596 68.8766829,7.10318074 69.0171947,7.95911526 C69.5319411,6.9864624 70.1774609,6.24574983 70.9565365,5.73398479 C71.7356121,5.22221974 72.624593,4.96633722 73.6206968,4.96633722 C74.3371682,4.96633722 74.9339957,5.11447973 75.4083971,5.40627559 C75.8841897,5.69956784 76.2625979,6.09012537 76.5422304,6.57645181 C76.8232541,7.06128185 77.018023,7.6269169 77.1279283,8.27186057 C77.2364424,8.91830063 77.2906994,9.60065402 77.2906994,10.3219135 L77.2906994,18.3410623 Z" id="Fill-10"></path>
                        <path d="M82.3379964,11.8046854 C82.3379964,12.4421471 82.4312072,13.0287316 82.6190201,13.5644389 C82.8068329,14.1016426 83.0628149,14.5670195 83.3911396,14.9590735 C83.7166819,15.3541202 84.1034373,15.6638727 84.5472322,15.8898274 C84.991027,16.1157822 85.4709933,16.2295078 85.9843484,16.2295078 C86.4990948,16.2295078 86.9776698,16.1157822 87.4214647,15.8898274 C87.8666507,15.6638727 88.2520149,15.349631 88.5789484,14.9471024 C88.9072731,14.5460701 89.1632551,14.0762039 89.3496768,13.5390003 C89.5374897,13.003293 89.6307005,12.4167085 89.6307005,11.7792468 C89.6307005,11.1597417 89.5374897,10.5776464 89.3496768,10.0329608 C89.1632551,9.4882752 88.9072731,9.01391988 88.5789484,8.61288763 C88.2520149,8.21035898 87.8666507,7.89611728 87.4214647,7.66866615 C86.9776698,7.44271141 86.4990948,7.33048223 85.9843484,7.33048223 C85.4862965,7.33048223 85.0146775,7.44720058 84.5694915,7.68213365 C84.1270878,7.91706673 83.7417237,8.23579759 83.4133989,8.63682985 C83.0864654,9.0393585 82.8263098,9.51371382 82.6315409,10.0583994 C82.4353808,10.603085 82.3379964,11.1851804 82.3379964,11.8046854 M85.9843484,18.592306 C85.0188512,18.592306 84.1507383,18.4082502 83.3786188,18.0401385 C82.6064992,17.6705304 81.9498498,17.176722 81.4031056,16.5557206 C80.8591439,15.9362155 80.4376084,15.2104668 80.1412814,14.3814673 C79.8449544,13.5524678 79.6988778,12.6845622 79.6988778,11.7792468 C79.6988778,10.8739314 79.8449544,10.0075222 80.1412814,9.17852268 C80.4376084,8.34802677 80.8619263,7.62377448 81.4156265,7.00426943 C81.9679355,6.38326798 82.6315409,5.88945961 83.4022693,5.51985152 C84.1729977,5.15173982 85.0327632,4.96768397 85.9843484,4.96768397 C86.9359336,4.96768397 87.7956992,5.15173982 88.5678188,5.51985152 C89.3385471,5.88945961 90.0007614,6.38326798 90.5530704,7.00426943 C91.1067705,7.62377448 91.5310885,8.34802677 91.8274155,9.17852268 C92.1237424,10.0075222 92.2726015,10.8739314 92.2726015,11.7792468 C92.2726015,12.6845622 92.1237424,13.5524678 91.8274155,14.3814673 C91.5310885,15.2104668 91.1067705,15.9362155 90.5530704,16.5557206 C90.0007614,17.176722 89.3385471,17.6705304 88.5678188,18.0401385 C87.7956992,18.4082502 86.9359336,18.592306 85.9843484,18.592306" id="Fill-12"></path>
                        <path d="M101.597441,17.6623002 C101.270507,17.8298958 100.816974,18.0184408 100.241015,18.2279353 C99.6636639,18.4374298 99.0487507,18.542177 98.3948837,18.542177 C97.9886514,18.542177 97.6074608,18.4838178 97.2499208,18.3656031 C96.8909895,18.2488847 96.5765769,18.0723108 96.3025092,17.8388741 C96.0298327,17.6039411 95.8155869,17.2971813 95.6597718,16.9200913 C95.5039567,16.5430013 95.4260491,16.0866026 95.4260491,15.5508953 L95.4260491,7.32973404 L93.8136409,7.32973404 L93.8136409,5.19289052 L95.4260491,5.19289052 L95.4260491,0.869822629 L97.9969986,0.869822629 L97.9969986,5.19289052 L100.661159,5.19289052 L100.661159,7.32973404 L97.9969986,7.32973404 L97.9969986,14.6710186 C98.0289964,15.1393883 98.1639434,15.480565 98.4060133,15.6885631 C98.6480832,15.8980576 98.9485838,16.0028048 99.3075151,16.0028048 C99.6636639,16.0028048 100.007292,15.9369637 100.335617,15.8022887 C100.661159,15.6676137 100.903229,15.5598737 101.059044,15.4760759 L101.597441,17.6623002 Z" id="Fill-14"></path>
                        <path d="M105.451778,11.8046854 C105.451778,12.4421471 105.544989,13.0287316 105.732802,13.5644389 C105.920615,14.1016426 106.176597,14.5670195 106.504922,14.9590735 C106.830464,15.3541202 107.217219,15.6638727 107.661014,15.8898274 C108.104809,16.1157822 108.584775,16.2295078 109.09813,16.2295078 C109.612877,16.2295078 110.091452,16.1157822 110.535247,15.8898274 C110.980433,15.6638727 111.365797,15.349631 111.69273,14.9471024 C112.021055,14.5460701 112.277037,14.0762039 112.463459,13.5390003 C112.651272,13.003293 112.744482,12.4167085 112.744482,11.7792468 C112.744482,11.1597417 112.651272,10.5776464 112.463459,10.0329608 C112.277037,9.4882752 112.021055,9.01391988 111.69273,8.61288763 C111.365797,8.21035898 110.980433,7.89611728 110.535247,7.66866615 C110.091452,7.44271141 109.612877,7.33048223 109.09813,7.33048223 C108.600078,7.33048223 108.128459,7.44720058 107.683273,7.68213365 C107.24087,7.91706673 106.855506,8.23579759 106.527181,8.63682985 C106.200247,9.0393585 105.940092,9.51371382 105.745323,10.0583994 C105.549163,10.603085 105.451778,11.1851804 105.451778,11.8046854 M109.09813,18.592306 C108.132633,18.592306 107.26452,18.4082502 106.492401,18.0401385 C105.720281,17.6705304 105.063632,17.176722 104.516888,16.5557206 C103.972926,15.9362155 103.55139,15.2104668 103.255063,14.3814673 C102.958736,13.5524678 102.81266,12.6845622 102.81266,11.7792468 C102.81266,10.8739314 102.958736,10.0075222 103.255063,9.17852268 C103.55139,8.34802677 103.975708,7.62377448 104.529408,7.00426943 C105.081717,6.38326798 105.745323,5.88945961 106.516051,5.51985152 C107.28678,5.15173982 108.146545,4.96768397 109.09813,4.96768397 C110.049716,4.96768397 110.909481,5.15173982 111.681601,5.51985152 C112.452329,5.88945961 113.114543,6.38326798 113.666852,7.00426943 C114.220552,7.62377448 114.64487,8.34802677 114.941197,9.17852268 C115.237524,10.0075222 115.386383,10.8739314 115.386383,11.7792468 C115.386383,12.6845622 115.237524,13.5524678 114.941197,14.3814673 C114.64487,15.2104668 114.220552,15.9362155 113.666852,16.5557206 C113.114543,17.176722 112.452329,17.6705304 111.681601,18.0401385 C110.909481,18.4082502 110.049716,18.592306 109.09813,18.592306" id="Fill-17"></path>
                        <path d="M97.8870933,26.7765065 C92.1469756,26.7765065 88.1389098,24.0156688 88.1389098,20.062209 L90.4761366,20.062209 C90.4761366,22.4968339 93.5924391,24.2625729 97.8870933,24.2625729 C102.181748,24.2625729 105.299441,22.4968339 105.299441,20.062209 L107.636668,20.062209 C107.636668,24.0156688 103.627211,26.7765065 97.8870933,26.7765065" id="Fill-28"></path>
                        <path d="M119.202685,21.66762 C119.436408,21.7170009 119.665957,21.7603961 119.891332,21.7933167 C120.116708,21.8262373 120.300347,21.8426975 120.44225,21.8426975 C120.643975,21.8426975 120.819267,21.7978059 120.968126,21.7050298 C121.115594,21.61375 121.265844,21.4491472 121.42305,21.2142142 C121.578866,20.9807775 121.737463,20.6485791 121.901626,20.2221082 C122.065788,19.794141 122.256383,19.2464626 122.474803,18.5760803 L117.449765,5.42730997 L120.091666,5.42730997 L123.875747,16.1384626 L127.242467,5.42730997 L129.672905,5.42730997 L124.134512,21.6182392 C123.884095,22.3724193 123.452821,23.0038954 122.836516,23.5141641 C122.221603,24.0259291 121.431398,24.2818117 120.464509,24.2818117 C120.276696,24.2818117 120.083319,24.2698405 119.880203,24.2444019 C119.678478,24.2189633 119.451711,24.1650933 119.202685,24.0812955 L119.202685,21.66762 Z" id="Fill-41"></path>
                        <path d="M135.562994,18.8268751 C134.284476,18.8268751 133.318978,18.3779584 132.665111,17.4831178 C132.009853,16.5867807 131.68292,15.249009 131.68292,13.4727952 L131.68292,5.4282078 L134.253869,5.4282078 L134.253869,12.9206276 C134.253869,15.2834259 135.032945,16.4640768 136.591096,16.4640768 C137.324262,16.4640768 138.017083,16.2216618 138.67095,15.7353354 C139.326208,15.249009 139.831216,14.5457061 140.190147,13.6224341 L140.190147,5.4282078 L142.761097,5.4282078 L142.761097,15.3073681 C142.761097,15.626099 142.812571,15.8535501 142.912738,15.9867287 C143.014296,16.1199074 143.196544,16.1962232 143.463656,16.2126835 L143.463656,18.5754818 C143.196544,18.6248626 142.979516,18.6592795 142.808398,18.6757398 C142.637279,18.6922001 142.473117,18.7011784 142.317302,18.7011784 C141.851248,18.7011784 141.451971,18.5620143 141.125038,18.2866787 C140.798104,18.0098467 140.626986,17.6537061 140.611683,17.2182569 L140.564382,15.9119093 C140.019029,16.8651091 139.309513,17.5908578 138.437227,18.0861625 C137.563549,18.5799709 136.606399,18.8268751 135.562994,18.8268751" id="Fill-42"></path>
                        <path d="M153.139218,7.81659432 C152.141723,7.84951488 151.256916,8.09641907 150.487579,8.55880327 C149.715459,9.01969109 149.167324,9.67660587 148.838999,10.531044 L148.838999,18.5756314 L146.26805,18.5756314 L146.26805,5.42835744 L148.651186,5.42835744 L148.651186,8.37025826 C149.072722,7.4649429 149.622248,6.73919422 150.299766,6.19600501 C150.977284,5.6513194 151.706276,5.35353799 152.48396,5.30266076 L152.870715,5.30266076 C152.972274,5.30266076 153.061311,5.31163909 153.139218,5.32809937 L153.139218,7.81659432 Z" id="Fill-43"></path>
                        <path d="M155.707942,18.5747336 L158.280283,18.5747336 L158.280283,5.42745961 L155.707942,5.42745961 L155.707942,18.5747336 Z M155.707942,3.26667386 L158.280283,3.26667386 L158.280283,0.224514974 L155.707942,0.224514974 L155.707942,3.26667386 Z" id="Fill-44"></path>
                        <path d="M88.6514303,11.7674253 C88.6514303,13.3565905 87.4536015,14.643485 85.9761403,14.643485 C84.5000703,14.643485 83.3022415,13.3565905 83.3022415,11.7674253 C83.3022415,10.1782602 84.5000703,8.89136562 85.9761403,8.89136562 C87.4536015,8.89136562 88.6514303,10.1782602 88.6514303,11.7674253" id="Fill-47"></path>
                        <path d="M111.856197,11.7674253 C111.856197,13.3565905 110.65976,14.643485 109.182298,14.643485 C107.706228,14.643485 106.507008,13.3565905 106.507008,11.7674253 C106.507008,10.1782602 107.706228,8.89136562 109.182298,8.89136562 C110.65976,8.89136562 111.856197,10.1782602 111.856197,11.7674253" id="Fill-48"></path>
                    </g>
                </g>
            </g>
        </g>
    </g>
</svg>