<?xml version="1.0" encoding="UTF-8"?>
<svg width="160px" height="36px" viewBox="0 0 160 36" version="1.1" xmlns="http://www.w3.org/2000/svg" xmlns:xlink="http://www.w3.org/1999/xlink">
    <!-- Generator: Sketch 54.1 (76490) - https://sketchapp.com -->
    <title>logo_hover@1x</title>
    <desc>Created with Sketch.</desc>
    <defs>
        <polygon id="path-1" points="0 24.6937871 139 24.6937871 139 0.193787097 0 0.193787097"></polygon>
    </defs>
    <g id="logo_hover" stroke="none" stroke-width="1" fill="none" fill-rule="evenodd">
        <g id="Group-49" transform="translate(10.500000, 5.500000)">
            <mask id="mask-2" fill="white">
                <use xlink:href="#path-1"></use>
            </mask>
            <g id="-"></g>
            <path d="M17.6112078,15.1291806 L15.3958343,15.1291806 L15.3958343,9.25453548 C15.3958343,8.2782129 15.2351958,7.56327742 14.9127199,7.10853548 C14.590244,6.65379355 14.1203163,6.42701935 13.5029367,6.42701935 C12.8723705,6.42701935 12.2969488,6.65737419 11.7814669,7.11927742 C11.2635873,7.5799871 10.8919608,8.17795484 10.662991,8.91318065 L10.662991,15.1291806 L8.44761747,15.1291806 L8.44761747,9.25453548 C8.44761747,8.26508387 8.28697892,7.54656774 7.96450301,7.09779355 C7.6432259,6.6502129 7.17929217,6.42701935 6.5750994,6.42701935 C5.94453313,6.42701935 5.36671386,6.65379355 4.84284036,7.10853548 C4.31896687,7.56327742 3.94374398,8.15766452 3.7147741,8.89289032 L3.7147741,15.1291806 L1.5005994,15.1291806 L1.5005994,4.64147097 L3.51337651,4.64147097 L3.51337651,6.74808387 C3.92935843,6.01285806 4.47720783,5.44830968 5.15452711,5.05324516 C5.83304518,4.65937419 6.60746687,4.46124516 7.48138855,4.46124516 C8.35291265,4.46124516 9.04221988,4.6892129 9.54451506,5.14395484 C10.048009,5.59869677 10.3608946,6.16563226 10.4819729,6.84834194 C10.9255271,6.07253548 11.4829669,5.48172903 12.1530934,5.07353548 C12.8256175,4.66534194 13.5904488,4.46124516 14.4487861,4.46124516 C15.0673645,4.46124516 15.5804488,4.57940645 15.989238,4.81214839 C16.3992259,5.04608387 16.7252982,5.3576 16.9674548,5.74550323 C17.2084127,6.1322129 17.376244,6.58337419 17.4709488,7.09779355 C17.5644548,7.61340645 17.6112078,8.15766452 17.6112078,8.73295484 L17.6112078,15.1291806 Z" id="Fill-1" fill="#FFDC1E" mask="url(#mask-2)"></path>
            <path d="M23.7737343,13.7053968 C24.3107946,13.7053968 24.8178849,13.6087194 25.2950054,13.414171 C25.7709271,13.2208161 26.1437524,12.9510742 26.4122825,12.6025581 C26.6939994,12.3626548 26.8354572,12.108429 26.8354572,11.8410742 L26.8354572,10.4565581 C26.4590355,10.3097516 26.0598367,10.1963645 25.636662,10.1163968 C25.2134873,10.036429 24.799903,9.99584839 24.3983066,9.99584839 C23.6047042,9.99584839 22.9573548,10.1665258 22.4538608,10.5066871 C21.9503669,10.8480419 21.6998187,11.2992032 21.6998187,11.8613645 C21.6998187,12.3817516 21.8940235,12.8197839 22.2836319,13.1742677 C22.6720416,13.5287516 23.1695416,13.7053968 23.7737343,13.7053968 M23.1695416,15.3298161 C22.6588548,15.3298161 22.1865295,15.2462677 21.7501681,15.079171 C21.3126078,14.9120742 20.9373849,14.6817194 20.6221018,14.3869129 C20.3056199,14.0933 20.0574693,13.7459774 19.8764512,13.3449452 C19.6954331,12.9439129 19.6043247,12.5094613 19.6043247,12.0403968 C19.6043247,11.5462677 19.7122163,11.0986871 19.9268006,10.6976548 C20.1425837,10.2966226 20.4482765,9.9493 20.8438789,9.65449355 C21.2394813,9.36088065 21.709409,9.1329129 22.2524633,8.97297742 C22.7979151,8.81304194 23.3985114,8.73188065 24.0554512,8.73188065 C24.5517524,8.73188065 25.0432584,8.77604194 25.5263729,8.86317097 C26.0094873,8.9503 26.4458488,9.06726774 26.8354572,9.21407419 L26.8354572,8.49197742 C26.8354572,7.71617097 26.6136801,7.11223548 26.1701259,6.67778387 C25.7277705,6.24333226 25.0900114,6.0249129 24.2568488,6.0249129 C23.6934151,6.0249129 23.1395717,6.12875161 22.5965175,6.33642903 C22.0510657,6.54410645 21.4912283,6.8413 20.913409,7.22920323 L20.228897,5.82439677 C21.5847343,4.91610645 22.9957163,4.46136452 24.4582464,4.46136452 C25.9087886,4.46136452 27.0368548,4.82897742 27.8424452,5.56420323 C28.6468367,6.29942903 29.0496319,7.35571935 29.0496319,8.73188065 L29.0496319,12.5225903 C29.0496319,12.9904613 29.2438367,13.2315581 29.634644,13.2446871 L29.634644,15.1293 C29.4200596,15.1698806 29.2354452,15.1961387 29.0808006,15.2092677 C28.926156,15.2223968 28.7751078,15.2295581 28.627656,15.2295581 C28.1972886,15.2295581 27.8652223,15.1221387 27.6302584,14.9084935 C27.3952946,14.6948484 27.2502404,14.4203323 27.1974934,14.0861387 L27.1375536,13.4249129 C26.6664271,14.0395903 26.0862102,14.5110419 25.3957042,14.8380742 C24.7028006,15.1663 23.9607464,15.3298161 23.1695416,15.3298161" id="Fill-3" fill="#FFDC1E" mask="url(#mask-2)"></path>
            <path d="M37.7905271,14.5877871 C37.5088102,14.7214645 37.1192018,14.8718516 36.6229006,15.0389484 C36.1254006,15.2060452 35.5955331,15.2895935 35.0309006,15.2895935 C34.6820512,15.2895935 34.3535813,15.2430452 34.0442922,15.1487548 C33.7362018,15.0556581 33.4640753,14.9148194 33.2291114,14.7286258 C32.9941476,14.5412387 32.8095331,14.2965613 32.6752681,13.9957871 C32.541003,13.6950129 32.4738705,13.3309806 32.4738705,12.9036903 L32.4738705,6.34633548 L31.0844669,6.34633548 L31.0844669,4.64194839 L32.4738705,4.64194839 L32.4738705,1.1937871 L34.689244,1.1937871 L34.689244,4.64194839 L36.9849367,4.64194839 L36.9849367,6.34633548 L34.689244,6.34633548 L34.689244,12.2018839 C34.7168163,12.5754645 34.8330994,12.8475935 35.0416898,13.0134968 C35.2502801,13.1805935 35.5080211,13.2641419 35.8173102,13.2641419 C36.1254006,13.2641419 36.4203042,13.2116258 36.7032199,13.1042065 C36.9849367,12.9967871 37.1935271,12.9108516 37.3277922,12.8440129 L37.7905271,14.5877871 Z" id="Fill-5" fill="#FFDC1E" mask="url(#mask-2)"></path>
            <path d="M42.7648078,15.3296968 C41.6643139,15.3296968 40.83235,14.9728258 40.2677175,14.2566968 C39.7030849,13.5417613 39.4225669,12.4759226 39.4225669,11.0591806 L39.4225669,4.64147097 L41.6379404,4.64147097 L41.6379404,10.6175677 C41.6379404,12.5021806 42.3080669,13.4450839 43.6507175,13.4450839 C44.2824825,13.4450839 44.8806813,13.251729 45.4429163,12.8638258 C46.0075488,12.4759226 46.4439102,11.9149548 46.7531994,11.1785355 L46.7531994,4.64147097 L48.9685729,4.64147097 L48.9685729,12.522471 C48.9685729,12.7766968 49.0117295,12.9569226 49.0992416,13.0643419 C49.1855548,13.1705677 49.3437958,13.2314387 49.5727657,13.2445677 L49.5727657,15.1291806 C49.3437958,15.1697613 49.1555849,15.1960194 49.0081331,15.2091484 C48.8606813,15.2222774 48.7204223,15.2294387 48.5849584,15.2294387 C48.183362,15.2294387 47.8405066,15.1196323 47.5587898,14.8988258 C47.2770729,14.6780194 47.1296211,14.3939548 47.1152355,14.0466323 L47.0756753,13.003471 C46.6045488,13.7649548 45.994362,14.3438258 45.2415187,14.7376968 C44.4898741,15.1315677 43.665103,15.3296968 42.7648078,15.3296968" id="Fill-8" fill="#FFDC1E" mask="url(#mask-2)"></path>
            <path d="M68.1009843,15.1291806 L65.8856108,15.1291806 L65.8856108,9.25453548 C65.8856108,8.2782129 65.7249723,7.56327742 65.4024964,7.10853548 C65.0788217,6.65379355 64.6100928,6.42701935 63.9927133,6.42701935 C63.3609482,6.42701935 62.7867253,6.65737419 62.2712434,7.11927742 C61.7533639,7.5799871 61.3817373,8.17795484 61.1527675,8.91318065 L61.1527675,15.1291806 L58.937394,15.1291806 L58.937394,9.25453548 C58.937394,8.26508387 58.7767554,7.54656774 58.4542795,7.09779355 C58.1318036,6.6502129 57.6690687,6.42701935 57.0648759,6.42701935 C56.4331108,6.42701935 55.8552916,6.65379355 55.3326169,7.10853548 C54.8087434,7.56327742 54.4323217,8.15766452 54.2045506,8.89289032 L54.2045506,15.1291806 L51.9891771,15.1291806 L51.9891771,4.64147097 L54.0019542,4.64147097 L54.0019542,6.74808387 C54.4191349,6.01285806 54.9657855,5.44830968 55.6443036,5.05324516 C56.3228217,4.65937419 57.0972434,4.46124516 57.9711651,4.46124516 C58.8426892,4.46124516 59.5319964,4.6892129 60.0342916,5.14395484 C60.5377855,5.59869677 60.8506711,6.16563226 60.9717494,6.84834194 C61.4153036,6.07253548 61.9715446,5.48172903 62.6428699,5.07353548 C63.3141952,4.66534194 64.0802253,4.46124516 64.9385627,4.46124516 C65.5559422,4.46124516 66.0702253,4.57940645 66.4790145,4.81214839 C66.8890024,5.04608387 67.2150747,5.3576 67.4560325,5.74550323 C67.6981892,6.1322129 67.8660205,6.58337419 67.9607253,7.09779355 C68.0542313,7.61340645 68.1009843,8.15766452 68.1009843,8.73295484 L68.1009843,15.1291806 Z" id="Fill-10" fill="#FFDC1E" mask="url(#mask-2)"></path>
            <path d="M72.4502133,9.91564194 C72.4502133,10.4240935 72.5305325,10.8919645 72.6923699,11.3192548 C72.8542072,11.7477387 73.0747855,12.1189323 73.3577012,12.4316419 C73.6382193,12.7467387 73.9714843,12.9938032 74.3539,13.174029 C74.7363157,13.3542548 75.1499,13.4449645 75.5922554,13.4449645 C76.0358096,13.4449645 76.4481952,13.3542548 76.8306108,13.174029 C77.2142253,12.9938032 77.5462916,12.7431581 77.8280084,12.4220935 C78.1109241,12.1022226 78.3315024,11.7274484 78.492141,11.2989645 C78.6539783,10.8716742 78.7342976,10.4038032 78.7342976,9.89535161 C78.7342976,9.40122258 78.6539783,8.93693226 78.492141,8.50248065 C78.3315024,8.06802903 78.1109241,7.68967419 77.8280084,7.36980323 C77.5462916,7.04873871 77.2142253,6.79809355 76.8306108,6.61667419 C76.4481952,6.43644839 76.0358096,6.34693226 75.5922554,6.34693226 C75.1630867,6.34693226 74.7566952,6.44002903 74.3730807,6.62741613 C73.9918639,6.81480323 73.6597976,7.06902903 73.3768819,7.3889 C73.0951651,7.70996452 72.8709904,8.08831935 72.703159,8.52277097 C72.5341289,8.95722258 72.4502133,9.4215129 72.4502133,9.91564194 M75.5922554,15.3295774 C74.7602916,15.3295774 74.0122434,15.182771 73.346912,14.8891581 C72.6815807,14.5943516 72.1157494,14.2004806 71.6446229,13.7051581 C71.175894,13.211029 70.812659,12.6321581 70.5573157,11.9709323 C70.3019723,11.3097065 70.1760988,10.6174484 70.1760988,9.89535161 C70.1760988,9.17325484 70.3019723,8.48219032 70.5573157,7.82096452 C70.812659,7.15854516 71.1782916,6.58086774 71.655412,6.08673871 C72.1313337,5.59141613 72.703159,5.19754516 73.3672916,4.90273871 C74.0314241,4.60912581 74.7722795,4.46231935 75.5922554,4.46231935 C76.4122313,4.46231935 77.1530867,4.60912581 77.8184181,4.90273871 C78.4825506,5.19754516 79.0531771,5.59141613 79.5290988,6.08673871 C80.0062193,6.58086774 80.3718518,7.15854516 80.6271952,7.82096452 C80.8825386,8.48219032 81.0108096,9.17325484 81.0108096,9.89535161 C81.0108096,10.6174484 80.8825386,11.3097065 80.6271952,11.9709323 C80.3718518,12.6321581 80.0062193,13.211029 79.5290988,13.7051581 C79.0531771,14.2004806 78.4825506,14.5943516 77.8184181,14.8891581 C77.1530867,15.182771 76.4122313,15.3295774 75.5922554,15.3295774" id="Fill-12" fill="#FFDC1E" mask="url(#mask-2)"></path>
            <path d="M89.0459741,14.5877871 C88.7642572,14.7214645 88.37345,14.8718516 87.8771488,15.0389484 C87.3796488,15.2060452 86.8497813,15.2895935 86.2863476,15.2895935 C85.9362994,15.2895935 85.6078295,15.2430452 85.2997392,15.1487548 C84.99045,15.0556581 84.7195223,14.9148194 84.4833596,14.7286258 C84.2483958,14.5412387 84.0637813,14.2965613 83.9295163,13.9957871 C83.7952512,13.6950129 83.7281187,13.3309806 83.7281187,12.9036903 L83.7281187,6.34633548 L82.3387151,6.34633548 L82.3387151,4.64194839 L83.7281187,4.64194839 L83.7281187,1.1937871 L85.9434922,1.1937871 L85.9434922,4.64194839 L88.2391849,4.64194839 L88.2391849,6.34633548 L85.9434922,6.34633548 L85.9434922,12.2018839 C85.9710645,12.5754645 86.0873476,12.8475935 86.295938,13.0134968 C86.5045283,13.1805935 86.7634681,13.2641419 87.0727572,13.2641419 C87.3796488,13.2641419 87.6757512,13.2116258 87.9586669,13.1042065 C88.2391849,12.9967871 88.4477753,12.9108516 88.5820404,12.8440129 L89.0459741,14.5877871 Z" id="Fill-14" fill="#FFDC1E" mask="url(#mask-2)"></path>
            <path d="M92.3672361,9.91564194 C92.3672361,10.4240935 92.4475554,10.8919645 92.6093928,11.3192548 C92.7712301,11.7477387 92.9918084,12.1189323 93.2747241,12.4316419 C93.5552422,12.7467387 93.8885072,12.9938032 94.2709229,13.174029 C94.6533386,13.3542548 95.0669229,13.4449645 95.5092783,13.4449645 C95.9528325,13.4449645 96.3652181,13.3542548 96.7476337,13.174029 C97.1312482,12.9938032 97.4633145,12.7431581 97.7450313,12.4220935 C98.027947,12.1022226 98.2485253,11.7274484 98.4091639,11.2989645 C98.5710012,10.8716742 98.6513205,10.4038032 98.6513205,9.89535161 C98.6513205,9.40122258 98.5710012,8.93693226 98.4091639,8.50248065 C98.2485253,8.06802903 98.027947,7.68967419 97.7450313,7.36980323 C97.4633145,7.04873871 97.1312482,6.79809355 96.7476337,6.61667419 C96.3652181,6.43644839 95.9528325,6.34693226 95.5092783,6.34693226 C95.0801096,6.34693226 94.6737181,6.44002903 94.2901036,6.62741613 C93.9088867,6.81480323 93.5768205,7.06902903 93.2939048,7.3889 C93.012188,7.70996452 92.7880133,8.08831935 92.6201819,8.52277097 C92.4511518,8.95722258 92.3672361,9.4215129 92.3672361,9.91564194 M95.5092783,15.3295774 C94.6773145,15.3295774 93.9292663,15.182771 93.2639349,14.8891581 C92.5986036,14.5943516 92.0327723,14.2004806 91.5616458,13.7051581 C91.0929169,13.211029 90.7296819,12.6321581 90.4743386,11.9709323 C90.2189952,11.3097065 90.0931217,10.6174484 90.0931217,9.89535161 C90.0931217,9.17325484 90.2189952,8.48219032 90.4743386,7.82096452 C90.7296819,7.15854516 91.0953145,6.58086774 91.5724349,6.08673871 C92.0483566,5.59141613 92.6201819,5.19754516 93.2843145,4.90273871 C93.948447,4.60912581 94.6893024,4.46231935 95.5092783,4.46231935 C96.3292542,4.46231935 97.0701096,4.60912581 97.735441,4.90273871 C98.3995735,5.19754516 98.9702,5.59141613 99.4461217,6.08673871 C99.9232422,6.58086774 100.288875,7.15854516 100.544218,7.82096452 C100.799561,8.48219032 100.927833,9.17325484 100.927833,9.89535161 C100.927833,10.6174484 100.799561,11.3097065 100.544218,11.9709323 C100.288875,12.6321581 99.9232422,13.211029 99.4461217,13.7051581 C98.9702,14.2004806 98.3995735,14.5943516 97.735441,14.8891581 C97.0701096,15.182771 96.3292542,15.3295774 95.5092783,15.3295774" id="Fill-17" fill="#FFDC1E" mask="url(#mask-2)"></path>
            <path d="M85.8487873,21.8574516 C80.9025584,21.8574516 77.4488295,19.6553548 77.4488295,16.502 L79.4628054,16.502 C79.4628054,18.4439032 82.1481066,19.8522903 85.8487873,19.8522903 C89.5494681,19.8522903 92.2359681,18.4439032 92.2359681,16.502 L94.249944,16.502 C94.249944,19.6553548 90.7950163,21.8574516 85.8487873,21.8574516" id="Fill-28" fill="#FFDC1E" mask="url(#mask-2)"></path>
            <path d="M104.216319,17.7825065 C104.417717,17.8218935 104.615518,17.8565065 104.809723,17.8827645 C105.003928,17.9090226 105.162169,17.9221516 105.284446,17.9221516 C105.458271,17.9221516 105.609319,17.8863452 105.73759,17.8123452 C105.864663,17.7395387 105.994133,17.6082484 106.129596,17.4208613 C106.263861,17.2346677 106.400524,16.9697 106.541982,16.6295387 C106.68344,16.2881839 106.847675,15.8513452 107.035886,15.3166355 L102.705837,4.82892581 L104.982349,4.82892581 L108.243072,13.3723452 L111.144157,4.82892581 L113.238452,4.82892581 L108.466048,17.7431194 C108.250265,18.3446677 107.878639,18.8483452 107.347572,19.2553452 C106.817705,19.6635387 106.136789,19.8676355 105.303627,19.8676355 C105.141789,19.8676355 104.975157,19.8580871 104.800133,19.8377968 C104.626307,19.8175065 104.430904,19.7745387 104.216319,19.7077 L104.216319,17.7825065 Z" id="Fill-41" fill="#FFDC1E" mask="url(#mask-2)"></path>
            <path d="M118.313911,15.5166742 C117.212218,15.5166742 116.380254,15.1586097 115.81682,14.4448677 C115.252188,13.7299323 114.970471,12.6629 114.970471,11.2461581 L114.970471,4.82964194 L117.185845,4.82964194 L117.185845,10.8057387 C117.185845,12.6903516 117.85717,13.6320613 119.19982,13.6320613 C119.831586,13.6320613 120.428586,13.4387065 120.992019,13.0508032 C121.556652,12.6629 121.991814,12.1019323 122.301104,11.3655129 L122.301104,4.82964194 L124.516477,4.82964194 L124.516477,12.7094484 C124.516477,12.9636742 124.560833,13.1450935 124.647146,13.2513194 C124.734658,13.3575452 124.8917,13.4184161 125.121869,13.4315452 L125.121869,15.3161581 C124.8917,15.3555452 124.704688,15.3829968 124.557236,15.3961258 C124.409784,15.4092548 124.268327,15.4164161 124.134061,15.4164161 C123.732465,15.4164161 123.388411,15.3054161 123.106694,15.0858032 C122.824977,14.8649968 122.677525,14.5809323 122.664339,14.2336097 L122.62358,13.1916419 C122.153652,13.9519323 121.542266,14.5308032 120.790622,14.9258677 C120.037778,15.3197387 119.213007,15.5166742 118.313911,15.5166742" id="Fill-42" fill="#FFDC1E" mask="url(#mask-2)"></path>
            <path d="M133.459249,6.73466452 C132.599713,6.76092258 131.83728,6.95785806 131.174346,7.32666452 C130.509014,7.69427742 130.036689,8.21824516 129.753773,8.89976129 L129.753773,15.3162774 L127.5384,15.3162774 L127.5384,4.82976129 L129.591936,4.82976129 L129.591936,7.17627742 C129.955171,6.45418065 130.428695,5.87530968 131.012508,5.44205161 C131.596322,5.0076 132.22449,4.77008387 132.894617,4.72950323 L133.227882,4.72950323 C133.315394,4.72950323 133.392117,4.73666452 133.459249,4.74979355 L133.459249,6.73466452 Z" id="Fill-43" fill="#FFDC1E" mask="url(#mask-2)"></path>
            <path d="M135.672705,15.3155613 L137.889277,15.3155613 L137.889277,4.82904516 L135.672705,4.82904516 L135.672705,15.3155613 Z M135.672705,3.10556129 L137.889277,3.10556129 L137.889277,0.679077419 L135.672705,0.679077419 L135.672705,3.10556129 Z" id="Fill-44" fill="#FFDC1E" mask="url(#mask-2)"></path>
            <path d="M77.8904657,9.88592258 C77.8904657,11.153471 76.858303,12.1799226 75.5851825,12.1799226 C74.3132608,12.1799226 73.2810982,11.153471 73.2810982,9.88592258 C73.2810982,8.61837419 74.3132608,7.59192258 75.5851825,7.59192258 C76.858303,7.59192258 77.8904657,8.61837419 77.8904657,9.88592258" id="Fill-47" fill="#FFDC1E" mask="url(#mask-2)"></path>
            <path d="M97.8858898,9.88592258 C97.8858898,11.153471 96.8549259,12.1799226 95.5818054,12.1799226 C94.3098837,12.1799226 93.2765223,11.153471 93.2765223,9.88592258 C93.2765223,8.61837419 94.3098837,7.59192258 95.5818054,7.59192258 C96.8549259,7.59192258 97.8858898,8.61837419 97.8858898,9.88592258" id="Fill-48" fill="#FFDC1E" mask="url(#mask-2)"></path>
        </g>
    </g>
</svg>