<?xml version="1.0" encoding="UTF-8"?>
<svg width="320px" height="72px" viewBox="0 0 320 72" version="1.1" xmlns="http://www.w3.org/2000/svg" xmlns:xlink="http://www.w3.org/1999/xlink">
    <!-- Generator: Sketch 54.1 (76490) - https://sketchapp.com -->
    <title>logo_hover@1x</title>
    <desc>Created with Sketch.</desc>
    <defs>
        <polygon id="path-1" points="0 49.3875742 278 49.3875742 278 0.387574194 0 0.387574194"></polygon>
    </defs>
    <g id="logo_hover" stroke="none" stroke-width="1" fill="none" fill-rule="evenodd">
        <g id="Group-49" transform="translate(21.000000, 11.000000)">
            <mask id="mask-2" fill="white">
                <use xlink:href="#path-1"></use>
            </mask>
            <g id="-"></g>
            <path d="M35.2224157,30.2583613 L30.7916687,30.2583613 L30.7916687,18.509071 C30.7916687,16.5564258 30.4703916,15.1265548 29.8254398,14.217071 C29.180488,13.3075871 28.2406325,12.8540387 27.0058735,12.8540387 C25.744741,12.8540387 24.5938976,13.3147484 23.5629337,14.2385548 C22.5271747,15.1599742 21.7839217,16.3559097 21.3259819,17.8263613 L21.3259819,30.2583613 L16.8952349,30.2583613 L16.8952349,18.509071 C16.8952349,16.5301677 16.5739578,15.0931355 15.929006,14.1955871 C15.2864518,13.3004258 14.3585843,12.8540387 13.1501988,12.8540387 C11.8890663,12.8540387 10.7334277,13.3075871 9.68568072,14.217071 C8.63793373,15.1265548 7.88748795,16.315329 7.42954819,17.7857806 L7.42954819,30.2583613 L3.0011988,30.2583613 L3.0011988,9.28294194 L7.02675301,9.28294194 L7.02675301,13.4961677 C7.85871687,12.0257161 8.95441566,10.8966194 10.3090542,10.1064903 C11.6660904,9.31874839 13.2149337,8.92249032 14.9627771,8.92249032 C16.7058253,8.92249032 18.0844398,9.37842581 19.0890301,10.2879097 C20.0960181,11.1973935 20.7217892,12.3312645 20.9639458,13.6966839 C21.8510542,12.145071 22.9659337,10.9634581 24.3061867,10.147071 C25.6512349,9.33068387 27.1808976,8.92249032 28.8975723,8.92249032 C30.1347289,8.92249032 31.1608976,9.1588129 31.9784759,9.62429677 C32.7984518,10.0921677 33.4505964,10.7152 33.9349096,11.4910065 C34.4168253,12.2644258 34.752488,13.1667484 34.9418976,14.1955871 C35.1289096,15.2268129 35.2224157,16.315329 35.2224157,17.4659097 L35.2224157,30.2583613 Z" id="Fill-1" fill="#FFDC1E" mask="url(#mask-2)"></path>
            <path d="M47.5474687,27.4107935 C48.6215892,27.4107935 49.6357699,27.2174387 50.5900108,26.8283419 C51.5418542,26.4416323 52.2875048,25.9021484 52.8245651,25.2051161 C53.3879988,24.7253097 53.6709145,24.2168581 53.6709145,23.6821484 L53.6709145,20.9131161 C52.9180711,20.6195032 52.1196735,20.392729 51.2733241,20.2327935 C50.4269747,20.0728581 49.599806,19.9916968 48.7966133,19.9916968 C47.2094084,19.9916968 45.9147096,20.3330516 44.9077217,21.0133742 C43.9007337,21.6960839 43.3996373,22.5984065 43.3996373,23.722729 C43.3996373,24.7635032 43.788047,25.6395677 44.5672639,26.3485355 C45.3440831,27.0575032 46.3390831,27.4107935 47.5474687,27.4107935 M46.3390831,30.6596323 C45.3177096,30.6596323 44.373059,30.4925355 43.5003361,30.1583419 C42.6252157,29.8241484 41.8747699,29.3634387 41.2442036,28.7738258 C40.6112398,28.1866 40.1149386,27.4919548 39.7529024,26.6898903 C39.3908663,25.8878258 39.2086494,25.0189226 39.2086494,24.0807935 C39.2086494,23.0925355 39.4244325,22.1973742 39.8536012,21.3953097 C40.2851675,20.5932452 40.896553,19.8986 41.6877578,19.3089871 C42.4789627,18.7217613 43.4188181,18.2658258 44.5049265,17.9459548 C45.5958301,17.6260839 46.7970229,17.4637613 48.1109024,17.4637613 C49.1035048,17.4637613 50.0865169,17.5520839 51.0527458,17.7263419 C52.0189747,17.9006 52.8916976,18.1345355 53.6709145,18.4281484 L53.6709145,16.9839548 C53.6709145,15.4323419 53.2273602,14.224471 52.3402518,13.3555677 C51.455541,12.4866645 50.1800229,12.0498258 48.5136976,12.0498258 C47.3868301,12.0498258 46.2791434,12.2575032 45.1930349,12.6728581 C44.1021313,13.0882129 42.9824566,13.6826 41.8268181,14.4584065 L40.457794,11.6487935 C43.1694687,9.8322129 45.9914325,8.92272903 48.9164928,8.92272903 C51.8175771,8.92272903 54.0737096,9.65795484 55.6848904,11.1284065 C57.2936735,12.5988581 58.0992639,14.7114387 58.0992639,17.4637613 L58.0992639,25.0451806 C58.0992639,25.9809226 58.4876735,26.4631161 59.269288,26.4893742 L59.269288,30.2586 C58.8401193,30.3397613 58.4708904,30.3922774 58.1616012,30.4185355 C57.852312,30.4447935 57.5502157,30.4591161 57.255312,30.4591161 C56.3945771,30.4591161 55.7304446,30.2442774 55.2605169,29.8169871 C54.7905892,29.3896968 54.5004807,28.8406645 54.3949867,28.1722774 L54.2751072,26.8498258 C53.3328542,28.0791806 52.1724205,29.0220839 50.7914084,29.6761484 C49.4056012,30.3326 47.9214928,30.6596323 46.3390831,30.6596323" id="Fill-3" fill="#FFDC1E" mask="url(#mask-2)"></path>
            <path d="M75.5810542,29.1755742 C75.0176205,29.442929 74.2384036,29.7437032 73.2458012,30.0778968 C72.2508012,30.4120903 71.1910663,30.5791871 70.0618012,30.5791871 C69.3641024,30.5791871 68.7071627,30.4860903 68.0885843,30.2975097 C67.4724036,30.1113161 66.9281506,29.8296387 66.4582229,29.4572516 C65.9882952,29.0824774 65.6190663,28.5931226 65.3505361,27.9915742 C65.082006,27.3900258 64.947741,26.6619613 64.947741,25.8073806 L64.947741,12.692671 L62.1689337,12.692671 L62.1689337,9.28389677 L64.947741,9.28389677 L64.947741,2.38757419 L69.378488,2.38757419 L69.378488,9.28389677 L73.9698735,9.28389677 L73.9698735,12.692671 L69.378488,12.692671 L69.378488,24.4037677 C69.4336325,25.150929 69.6661988,25.6951871 70.0833795,26.0269935 C70.5005602,26.3611871 71.0160422,26.5282839 71.6346205,26.5282839 C72.2508012,26.5282839 72.8406084,26.4232516 73.4064398,26.2084129 C73.9698735,25.9935742 74.3870542,25.8217032 74.6555843,25.6880258 L75.5810542,29.1755742 Z" id="Fill-5" fill="#FFDC1E" mask="url(#mask-2)"></path>
            <path d="M85.5296157,30.6593935 C83.3286277,30.6593935 81.6647,29.9456516 80.5354349,28.5133935 C79.4061699,27.0835226 78.8451337,24.9518452 78.8451337,22.1183613 L78.8451337,9.28294194 L83.2758807,9.28294194 L83.2758807,21.2351355 C83.2758807,25.0043613 84.6161337,26.8901677 87.3014349,26.8901677 C88.5649651,26.8901677 89.7613627,26.5034581 90.8858325,25.7276516 C92.0150976,24.9518452 92.8878205,23.8299097 93.5063988,22.357071 L93.5063988,9.28294194 L97.9371458,9.28294194 L97.9371458,25.0449419 C97.9371458,25.5533935 98.023459,25.9138452 98.1984831,26.1286839 C98.3711096,26.3411355 98.6875916,26.4628774 99.1455313,26.4891355 L99.1455313,30.2583613 C98.6875916,30.3395226 98.3111699,30.3920387 98.0162663,30.4182968 C97.7213627,30.4445548 97.4408446,30.4588774 97.1699169,30.4588774 C96.3667241,30.4588774 95.6810133,30.2392645 95.1175795,29.7976516 C94.5541458,29.3560387 94.2592422,28.7879097 94.2304711,28.0932645 L94.1513506,26.0069419 C93.2090976,27.5299097 91.9887241,28.6876516 90.4830373,29.4753935 C88.9797482,30.2631355 87.330206,30.6593935 85.5296157,30.6593935" id="Fill-8" fill="#FFDC1E" mask="url(#mask-2)"></path>
            <path d="M136.201969,30.2583613 L131.771222,30.2583613 L131.771222,18.509071 C131.771222,16.5564258 131.449945,15.1265548 130.804993,14.217071 C130.157643,13.3075871 129.220186,12.8540387 127.985427,12.8540387 C126.721896,12.8540387 125.573451,13.3147484 124.542487,14.2385548 C123.506728,15.1599742 122.763475,16.3559097 122.305535,17.8263613 L122.305535,30.2583613 L117.874788,30.2583613 L117.874788,18.509071 C117.874788,16.5301677 117.553511,15.0931355 116.908559,14.1955871 C116.263607,13.3004258 115.338137,12.8540387 114.129752,12.8540387 C112.866222,12.8540387 111.710583,13.3075871 110.665234,14.217071 C109.617487,15.1265548 108.864643,16.315329 108.409101,17.7857806 L108.409101,30.2583613 L103.978354,30.2583613 L103.978354,9.28294194 L108.003908,9.28294194 L108.003908,13.4961677 C108.83827,12.0257161 109.931571,10.8966194 111.288607,10.1064903 C112.645643,9.31874839 114.194487,8.92249032 115.94233,8.92249032 C117.685378,8.92249032 119.063993,9.37842581 120.068583,10.2879097 C121.075571,11.1973935 121.701342,12.3312645 121.943499,13.6966839 C122.830607,12.145071 123.943089,10.9634581 125.28574,10.147071 C126.62839,9.33068387 128.160451,8.92249032 129.877125,8.92249032 C131.111884,8.92249032 132.140451,9.1588129 132.958029,9.62429677 C133.778005,10.0921677 134.430149,10.7152 134.912065,11.4910065 C135.396378,12.2644258 135.732041,13.1667484 135.921451,14.1955871 C136.108463,15.2268129 136.201969,16.315329 136.201969,17.4659097 L136.201969,30.2583613 Z" id="Fill-10" fill="#FFDC1E" mask="url(#mask-2)"></path>
            <path d="M144.900427,19.8312839 C144.900427,20.8481871 145.061065,21.783929 145.38474,22.6385097 C145.708414,23.4954774 146.149571,24.2378645 146.715402,24.8632839 C147.276439,25.4934774 147.942969,25.9876065 148.7078,26.3480581 C149.472631,26.7085097 150.2998,26.889929 151.184511,26.889929 C152.071619,26.889929 152.89639,26.7085097 153.661222,26.3480581 C154.428451,25.9876065 155.092583,25.4863161 155.656017,24.8441871 C156.221848,24.2044452 156.663005,23.4548968 156.984282,22.597929 C157.307957,21.7433484 157.468595,20.8076065 157.468595,19.7907032 C157.468595,18.8024452 157.307957,17.8738645 156.984282,17.0049613 C156.663005,16.1360581 156.221848,15.3793484 155.656017,14.7396065 C155.092583,14.0974774 154.428451,13.5961871 153.661222,13.2333484 C152.89639,12.8728968 152.071619,12.6938645 151.184511,12.6938645 C150.326173,12.6938645 149.51339,12.8800581 148.746161,13.2548323 C147.983728,13.6296065 147.319595,14.1380581 146.753764,14.7778 C146.19033,15.419929 145.741981,16.1766387 145.406318,17.0455419 C145.068258,17.9144452 144.900427,18.8430258 144.900427,19.8312839 M151.184511,30.6591548 C149.520583,30.6591548 148.024487,30.3655419 146.693824,29.7783161 C145.363161,29.1887032 144.231499,28.4009613 143.289246,27.4103161 C142.351788,26.4220581 141.625318,25.2643161 141.114631,23.9418645 C140.603945,22.6194129 140.352198,21.2348968 140.352198,19.7907032 C140.352198,18.3465097 140.603945,16.9643806 141.114631,15.641929 C141.625318,14.3170903 142.356583,13.1617355 143.310824,12.1734774 C144.262667,11.1828323 145.406318,10.3950903 146.734583,9.80547742 C148.062848,9.21825161 149.544559,8.92463871 151.184511,8.92463871 C152.824463,8.92463871 154.306173,9.21825161 155.636836,9.80547742 C156.965101,10.3950903 158.106354,11.1828323 159.058198,12.1734774 C160.012439,13.1617355 160.743704,14.3170903 161.25439,15.641929 C161.765077,16.9643806 162.021619,18.3465097 162.021619,19.7907032 C162.021619,21.2348968 161.765077,22.6194129 161.25439,23.9418645 C160.743704,25.2643161 160.012439,26.4220581 159.058198,27.4103161 C158.106354,28.4009613 156.965101,29.1887032 155.636836,29.7783161 C154.306173,30.3655419 152.824463,30.6591548 151.184511,30.6591548" id="Fill-12" fill="#FFDC1E" mask="url(#mask-2)"></path>
            <path d="M178.091948,29.1755742 C177.528514,29.442929 176.7469,29.7437032 175.754298,30.0778968 C174.759298,30.4120903 173.699563,30.5791871 172.572695,30.5791871 C171.872599,30.5791871 171.215659,30.4860903 170.599478,30.2975097 C169.9809,30.1113161 169.439045,29.8296387 168.966719,29.4572516 C168.496792,29.0824774 168.127563,28.5931226 167.859033,27.9915742 C167.590502,27.3900258 167.456237,26.6619613 167.456237,25.8073806 L167.456237,12.692671 L164.67743,12.692671 L164.67743,9.28389677 L167.456237,9.28389677 L167.456237,2.38757419 L171.886984,2.38757419 L171.886984,9.28389677 L176.47837,9.28389677 L176.47837,12.692671 L171.886984,12.692671 L171.886984,24.4037677 C171.942129,25.150929 172.174695,25.6951871 172.591876,26.0269935 C173.009057,26.3611871 173.526936,26.5282839 174.145514,26.5282839 C174.759298,26.5282839 175.351502,26.4232516 175.917334,26.2084129 C176.47837,25.9935742 176.895551,25.8217032 177.164081,25.6880258 L178.091948,29.1755742 Z" id="Fill-14" fill="#FFDC1E" mask="url(#mask-2)"></path>
            <path d="M184.734472,19.8312839 C184.734472,20.8481871 184.895111,21.783929 185.218786,22.6385097 C185.54246,23.4954774 185.983617,24.2378645 186.549448,24.8632839 C187.110484,25.4934774 187.777014,25.9876065 188.541846,26.3480581 C189.306677,26.7085097 190.133846,26.889929 191.018557,26.889929 C191.905665,26.889929 192.730436,26.7085097 193.495267,26.3480581 C194.262496,25.9876065 194.926629,25.4863161 195.490063,24.8441871 C196.055894,24.2044452 196.497051,23.4548968 196.818328,22.597929 C197.142002,21.7433484 197.302641,20.8076065 197.302641,19.7907032 C197.302641,18.8024452 197.142002,17.8738645 196.818328,17.0049613 C196.497051,16.1360581 196.055894,15.3793484 195.490063,14.7396065 C194.926629,14.0974774 194.262496,13.5961871 193.495267,13.2333484 C192.730436,12.8728968 191.905665,12.6938645 191.018557,12.6938645 C190.160219,12.6938645 189.347436,12.8800581 188.580207,13.2548323 C187.817773,13.6296065 187.153641,14.1380581 186.58781,14.7778 C186.024376,15.419929 185.576027,16.1766387 185.240364,17.0455419 C184.902304,17.9144452 184.734472,18.8430258 184.734472,19.8312839 M191.018557,30.6591548 C189.354629,30.6591548 187.858533,30.3655419 186.52787,29.7783161 C185.197207,29.1887032 184.065545,28.4009613 183.123292,27.4103161 C182.185834,26.4220581 181.459364,25.2643161 180.948677,23.9418645 C180.43799,22.6194129 180.186243,21.2348968 180.186243,19.7907032 C180.186243,18.3465097 180.43799,16.9643806 180.948677,15.641929 C181.459364,14.3170903 182.190629,13.1617355 183.14487,12.1734774 C184.096713,11.1828323 185.240364,10.3950903 186.568629,9.80547742 C187.896894,9.21825161 189.378605,8.92463871 191.018557,8.92463871 C192.658508,8.92463871 194.140219,9.21825161 195.470882,9.80547742 C196.799147,10.3950903 197.9404,11.1828323 198.892243,12.1734774 C199.846484,13.1617355 200.577749,14.3170903 201.088436,15.641929 C201.599123,16.9643806 201.855665,18.3465097 201.855665,19.7907032 C201.855665,21.2348968 201.599123,22.6194129 201.088436,23.9418645 C200.577749,25.2643161 199.846484,26.4220581 198.892243,27.4103161 C197.9404,28.4009613 196.799147,29.1887032 195.470882,29.7783161 C194.140219,30.3655419 192.658508,30.6591548 191.018557,30.6591548" id="Fill-17" fill="#FFDC1E" mask="url(#mask-2)"></path>
            <path d="M171.697575,43.7149032 C161.805117,43.7149032 154.897659,39.3107097 154.897659,33.004 L158.925611,33.004 C158.925611,36.8878065 164.296213,39.7045806 171.697575,39.7045806 C179.098936,39.7045806 184.471936,36.8878065 184.471936,33.004 L188.499888,33.004 C188.499888,39.3107097 181.590033,43.7149032 171.697575,43.7149032" id="Fill-28" fill="#FFDC1E" mask="url(#mask-2)"></path>
            <path d="M208.432639,35.5650129 C208.835434,35.6437871 209.231036,35.7130129 209.619446,35.765529 C210.007855,35.8180452 210.324337,35.8443032 210.568892,35.8443032 C210.916542,35.8443032 211.218639,35.7726903 211.475181,35.6246903 C211.729325,35.4790774 211.988265,35.2164968 212.259193,34.8417226 C212.527723,34.4693355 212.801048,33.9394 213.083964,33.2590774 C213.36688,32.5763677 213.695349,31.7026903 214.071771,30.633271 L205.411675,9.65785161 L209.964699,9.65785161 L216.486145,26.7446903 L222.288313,9.65785161 L226.476904,9.65785161 L216.932096,35.4862387 C216.50053,36.6893355 215.757277,37.6966903 214.695145,38.5106903 C213.63541,39.3270774 212.273578,39.735271 210.607253,39.735271 C210.283578,39.735271 209.950313,39.7161742 209.600265,39.6755935 C209.252614,39.6350129 208.861807,39.5490774 208.432639,39.4154 L208.432639,35.5650129 Z" id="Fill-41" fill="#FFDC1E" mask="url(#mask-2)"></path>
            <path d="M236.627822,31.0333484 C234.424436,31.0333484 232.760508,30.3172194 231.633641,28.8897355 C230.504376,27.4598645 229.940942,25.3258 229.940942,22.4923161 L229.940942,9.65928387 L234.371689,9.65928387 L234.371689,21.6114774 C234.371689,25.3807032 235.71434,27.2641226 238.399641,27.2641226 C239.663171,27.2641226 240.857171,26.8774129 241.984039,26.1016065 C243.113304,25.3258 243.983629,24.2038645 244.602207,22.7310258 L244.602207,9.65928387 L249.032954,9.65928387 L249.032954,25.4188968 C249.032954,25.9273484 249.121665,26.2901871 249.294292,26.5026387 C249.469316,26.7150903 249.7834,26.8368323 250.243737,26.8630903 L250.243737,30.6323161 C249.7834,30.7110903 249.409376,30.7659935 249.114472,30.7922516 C248.819569,30.8185097 248.536653,30.8328323 248.268123,30.8328323 C247.46493,30.8328323 246.776822,30.6108323 246.213388,30.1716065 C245.649954,29.7299935 245.355051,29.1618645 245.328677,28.4672194 L245.247159,26.3832839 C244.307304,27.9038645 243.084533,29.0616065 241.581243,29.8517355 C240.075557,30.6394774 238.426014,31.0333484 236.627822,31.0333484" id="Fill-42" fill="#FFDC1E" mask="url(#mask-2)"></path>
            <path d="M266.918499,13.469329 C265.199427,13.5218452 263.674559,13.9157161 262.348692,14.653329 C261.018029,15.3885548 260.073378,16.4364903 259.507547,17.7995226 L259.507547,30.6325548 L255.0768,30.6325548 L255.0768,9.65952258 L259.183872,9.65952258 L259.183872,14.3525548 C259.910342,12.9083613 260.85739,11.7506194 262.025017,10.8841032 C263.192643,10.0152 264.448981,9.54016774 265.789234,9.45900645 L266.455764,9.45900645 C266.630788,9.45900645 266.784234,9.47332903 266.918499,9.4995871 L266.918499,13.469329 Z" id="Fill-43" fill="#FFDC1E" mask="url(#mask-2)"></path>
            <path d="M271.34541,30.6311226 L275.778554,30.6311226 L275.778554,9.65809032 L271.34541,9.65809032 L271.34541,30.6311226 Z M271.34541,6.21112258 L275.778554,6.21112258 L275.778554,1.35815484 L271.34541,1.35815484 L271.34541,6.21112258 Z" id="Fill-44" fill="#FFDC1E" mask="url(#mask-2)"></path>
            <path d="M155.780931,19.7718452 C155.780931,22.3069419 153.716606,24.3598452 151.170365,24.3598452 C148.626522,24.3598452 146.562196,22.3069419 146.562196,19.7718452 C146.562196,17.2367484 148.626522,15.1838452 151.170365,15.1838452 C153.716606,15.1838452 155.780931,17.2367484 155.780931,19.7718452" id="Fill-47" fill="#FFDC1E" mask="url(#mask-2)"></path>
            <path d="M195.77178,19.7718452 C195.77178,22.3069419 193.709852,24.3598452 191.163611,24.3598452 C188.619767,24.3598452 186.553045,22.3069419 186.553045,19.7718452 C186.553045,17.2367484 188.619767,15.1838452 191.163611,15.1838452 C193.709852,15.1838452 195.77178,17.2367484 195.77178,19.7718452" id="Fill-48" fill="#FFDC1E" mask="url(#mask-2)"></path>
        </g>
    </g>
</svg>